<svg xmlns="http://www.w3.org/2000/svg" viewBox="0 0 960 540">
	<style type="text/css">
		.st0{fill:hsl(0,0%,0%);}
		.st1{fill:hsl(0,0%,2%);}
		.st2{fill:hsl(0,0%,4%);}
		.st3{fill:hsl(0,0%,6%);}
		.st4{fill:hsl(0,0%,8%);}
		.st5{fill:hsl(0,0%,10%);}
		.st6{fill:hsl(0,0%,12%);}
		.st7{fill:hsl(0,0%,14%);}
		.st8{fill:hsl(0,0%,16%);}
	</style>
	<polygon class="st0" points="94,108 0,0 87.7,0 "/>
	<polygon class="st1" points="94,108 160.9,13.1 130,0 87.7,0 "/>
	<polygon class="st2" points="94,108 160.9,13.1 205,68.7 "/>
	<polygon class="st3" points="94,108 0,123 0,0 "/>
	<polygon class="st4" points="94,108 0,123 95,226.5 "/>
	<polygon class="st5" points="94,108 190,170 95,226.5 "/>
	<polygon class="st5" points="239.7,0 205,68.7 160.9,13.1 182.1,0 "/>
	<polygon class="st6" points="94,108 205,68.7 190,170 "/>
	<polygon class="st6" points="357.1,321.1 397.3,261.8 471.3,401.9 "/>
	<polygon class="st6" points="832,285.1 705,133 848.4,166 "/>
	<polygon class="st6" points="960,540 904.2,387 960,363 "/>
	<polygon class="st6" points="575.1,321.1 502.7,203.8 652,213 "/>
	<polygon class="st6" points="699.5,444.7 627.5,398.6 695,312.7 "/>
	<polygon class="st7" points="0,330.4 0,123 95,226.5 "/>
	<polygon class="st7" points="296,102 276.1,0 239.7,0 205,68.7 "/>
	<polygon class="st0" points="190,170 205,68.7 296,102 "/>
	<polygon class="st0" points="502.7,203.8 550,85.2 705,133 "/>
	<polygon class="st0" points="832,285.1 848.4,166 960,271.8 "/>
	<polygon class="st1" points="397.3,261.8 502.7,203.8 332,193 "/>
	<polygon class="st1" points="627.5,398.6 695,312.7 575.1,321.1 "/>
	<polygon class="st6" points="130,422.9 235.6,291.5 276.1,384.6 "/>
	<polygon class="st2" points="0,330.4 95,226.5 130,422.9 "/>
	<polygon class="st2" points="235.6,291.5 357.1,321.1 276.1,384.6 "/>
	<polygon class="st2" points="371,476 471.3,401.9 476,540 "/>
	<polygon class="st7" points="371,476 357.1,321.1 471.3,401.9 "/>
	<polygon class="st8" points="357.1,34.2 321,0 276.1,0 296,102 "/>
	<polygon class="st8" points="798.7,54 705,133 848.4,166 "/>
	<polygon class="st8" points="652,213 575.1,321.1 695,312.7 "/>
	<polygon class="st8" points="904.2,387 960,271.8 832,285.1 "/>
	<polygon class="st5" points="130,422.9 235.6,291.5 95,226.5 "/>
	<polygon class="st3" points="130,422.9 0,330.4 86.7,521.6 "/>
	<polygon class="st8" points="86.7,521.6 0,330.4 0,540 "/>
	<polygon class="st0" points="276.1,384.6 130,422.9 266,488 "/>
	<polygon class="st3" points="190,170 235.6,291.5 95,226.5 "/>
	<polygon class="st3" points="414,127.3 502.7,203.8 332,193 "/>
	<polygon class="st3" points="397.3,261.8 575.1,321.1 471.3,401.9 "/>
	<polygon class="st7" points="235.6,291.5 190,170 332,193 "/>
	<polygon class="st4" points="296,102 190,170 332,193 "/>
	<polygon class="st4" points="627.5,398.6 565,489 699.5,444.7 "/>
	<polygon class="st5" points="357.1,34.2 414,127.3 296,102 "/>
	<polygon class="st5" points="502.7,203.8 575.1,321.1 397.3,261.8 "/>
	<polygon class="st5" points="832,285.1 699.5,444.7 695,312.7 "/>
	<polygon class="st5" points="471.3,401.9 565,489 476,540 "/>
	<polygon class="st0" points="362,0 357.1,34.2 476,0 "/>
	<polygon class="st1" points="414,127.3 476,0 357.1,34.2 "/>
	<polygon class="st4" points="550,85.2 414,127.3 476,0 "/>
	<polygon class="st4" points="960,0 798.7,54 837.1,0 "/>
	<polygon class="st4" points="832,285.1 652,213 705,133 "/>
	<polygon class="st4" points="960,271.8 960,363 904.2,387 "/>
	<polyline class="st6" points="296,102 414,127.3 332,193 "/>
	<polygon class="st6" points="559.4,0 476,0 550,85.2 "/>
	<polygon class="st8" points="550,85.2 414,127.3 502.7,203.8 "/>
	<polygon class="st8" points="397.3,261.8 235.6,291.5 357.1,321.1 "/>
	<polygon class="st7" points="559.4,0 611.5,0 644,35.7 550,85.2 "/>
	<polygon class="st7" points="798.7,54 960,0 894,89.1 "/>
	<polygon class="st7" points="502.7,203.8 705,133 652,213 "/>
	<polygon class="st7" points="699.5,444.7 832,285.1 904.2,387 "/>
	<polygon class="st3" points="644,35.7 659.1,0 611.5,0 "/>
	<polygon class="st3" points="848.4,166 894,89.1 798.7,54 "/>
	<polygon class="st3" points="695,312.7 832,285.1 652,213 "/>
	<polygon class="st3" points="868,496.7 960,540 904.2,387 "/>
	<polygon class="st5" points="659.1,0 701.8,0 705,133 644,35.7 "/>
	<polygon class="st5" points="960,0 960,127.3 894,89.1 "/>
	<polygon class="st2" points="798.7,54 762.8,0 701.8,0 705,133 "/>
	<polygon class="st2" points="960,271.8 960,127.3 848.4,166 "/>
	<polygon class="st0" points="798.7,54 762.8,0 837.1,0 "/>
	<polygon class="st1" points="705,133 644,35.7 550,85.2 "/>
	<polygon class="st1" points="960,127.3 894,89.1 848.4,166 "/>
	<polygon class="st1" points="904.2,387 868,496.7 699.5,444.7 "/>
	<polygon class="st0" points="397.3,261.8 332,193 235.6,291.5 "/>
	<polygon class="st0" points="565,489 575.1,321.1 471.3,401.9 "/>
	<polygon class="st4" points="960,540 837.1,540 868,496.7 "/>
	<polygon class="st6" points="565,489 476,540 559.4,540 "/>
	<polygon class="st7" points="565,489 611.5,540 559.4,540 "/>
	<polygon class="st3" points="611.5,540 659.1,540 699.5,444.7 565,489 "/>
	<polygon class="st5" points="699.5,444.7 701.8,540 659.1,540 "/>
	<polygon class="st2" points="762.8,540 699.5,444.7 701.8,540 "/>
	<polygon class="st0" points="762.8,540 699.5,444.7 868,496.7 837.1,540 "/>
	<polygon class="st7" points="157.8,0 130,0 160.9,13.1 "/>
	<polygon class="st4" points="182.1,0 160.9,13.1 157.8,0 "/>
	<polygon class="st3" points="321,0 362,0 357.1,34.2 "/>
	<polygon class="st0" points="87.7,540 0,540 86.7,521.6 "/>
	<polygon class="st1" points="87.7,540 130.1,540 86.7,521.6 "/>
	<polygon class="st1" points="371,476 357.1,321.1 276.1,384.6 "/>
	<polygon class="st5" points="266,488 239.7,540 182.1,540 "/>
	<polygon class="st7" points="276.1,540 266,488 239.7,540 "/>
	<polygon class="st8" points="320.9,540 266,488 276.1,540 "/>
	<polygon class="st7" points="130,422.9 86.7,521.6 130.1,540 157.8,540 "/>
	<polygon class="st4" points="266,488 182.1,540 157.8,540 130,422.9 "/>
	<polygon class="st0" points="371,476 362,540 476,540 "/>
	<polygon class="st3" points="266,488 371,476 362,540 320.9,540 "/>
	<polygon class="st2" points="627.5,398.6 565,489 575.1,321.1 "/>
	<polyline class="st8" points="276.1,384.6 371,476 266,488 "/>
</svg>
